<svg width="129" height="129" viewBox="0 0 129 129" fill="none" xmlns="http://www.w3.org/2000/svg">
<path d="M112.875 36.1738C112.767 36.1738 112.606 36.1738 112.445 36.1738C84.011 33.3251 55.6309 32.2501 27.5197 35.0988L16.5547 36.1738C14.2972 36.3888 12.3084 34.7763 12.0934 32.5188C11.8784 30.2613 13.4909 28.3263 15.6947 28.1113L26.6597 27.0363C55.2547 24.1338 84.2259 25.2626 113.251 28.1113C115.455 28.3263 117.067 30.3151 116.852 32.5188C116.691 34.6151 114.917 36.1738 112.875 36.1738Z" fill="#6F6F6F"/>
<path d="M45.6876 30.745C45.4726 30.745 45.2576 30.745 44.9888 30.6913C42.8388 30.315 41.3338 28.2187 41.7101 26.0687L42.8926 19.0275C43.7526 13.8675 44.9351 6.71875 57.4588 6.71875H71.5413C84.1188 6.71875 85.3013 14.1362 86.1076 19.0812L87.2901 26.0687C87.6663 28.2725 86.1613 30.3688 84.0113 30.6913C81.8076 31.0675 79.7113 29.5625 79.3888 27.4125L78.2063 20.425C77.4538 15.7487 77.2926 14.835 71.5951 14.835H57.5126C51.8151 14.835 51.7076 15.5875 50.9013 20.3712L49.6651 27.3588C49.3426 29.3475 47.6226 30.745 45.6876 30.745Z" fill="#6F6F6F"/>
<path d="M81.7539 122.282H47.2464C28.4876 122.282 27.7351 111.908 27.1439 103.523L23.6501 49.3967C23.4889 47.193 25.2089 45.258 27.4126 45.0967C29.6701 44.9892 31.5514 46.6555 31.7126 48.8592L35.2064 102.985C35.7976 111.155 36.0126 114.219 47.2464 114.219H81.7539C93.0414 114.219 93.2564 111.155 93.7939 102.985L97.2876 48.8592C97.4489 46.6555 99.3839 44.9892 101.588 45.0967C103.791 45.258 105.511 47.1392 105.35 49.3967L101.856 103.523C101.265 111.908 100.513 122.282 81.7539 122.282Z" fill="#6F6F6F"/>
<path d="M73.4222 92.7188H55.5234C53.3197 92.7188 51.4922 90.8912 51.4922 88.6875C51.4922 86.4838 53.3197 84.6562 55.5234 84.6562H73.4222C75.6259 84.6562 77.4534 86.4838 77.4534 88.6875C77.4534 90.8912 75.6259 92.7188 73.4222 92.7188Z" fill="#6F6F6F"/>
<path d="M77.9375 71.2188H51.0625C48.8588 71.2188 47.0312 69.3912 47.0312 67.1875C47.0312 64.9838 48.8588 63.1562 51.0625 63.1562H77.9375C80.1412 63.1562 81.9688 64.9838 81.9688 67.1875C81.9688 69.3912 80.1412 71.2188 77.9375 71.2188Z" fill="#6F6F6F"/>
</svg>
