<svg width="129" height="129" viewBox="0 0 129 129" fill="none" xmlns="http://www.w3.org/2000/svg">
<path d="M29.7777 104.92C26.4989 104.92 23.4352 103.791 21.2314 101.695C18.4364 99.0613 17.0927 95.0838 17.5764 90.7838L19.5652 73.3688C19.9414 70.0901 21.9302 65.7363 24.2414 63.3713L68.3702 16.6626C79.3889 4.99883 90.8914 4.67633 102.555 15.6951C114.219 26.7138 114.541 38.2163 103.523 49.8801L59.3939 96.5888C57.1364 99.0076 52.9439 101.265 49.6652 101.803L32.3577 104.759C31.4439 104.813 30.6377 104.92 29.7777 104.92ZM85.6239 15.6413C81.4852 15.6413 77.8839 18.2213 74.2289 22.0913L30.1002 68.8538C29.0252 69.9826 27.7889 72.6701 27.5739 74.2288L25.5852 91.6438C25.3702 93.4176 25.8002 94.8688 26.7677 95.7826C27.7352 96.6963 29.1864 97.0188 30.9602 96.7501L48.2677 93.7938C49.8264 93.5251 52.4064 92.1276 53.4814 90.9988L97.6102 44.2901C104.275 37.1951 106.694 30.6376 96.9652 21.5001C92.6652 17.3613 88.9564 15.6413 85.6239 15.6413Z" fill="#6F6F6F"/>
<path d="M93.2024 58.8565C93.0949 58.8565 92.9336 58.8565 92.8261 58.8565C76.0562 57.1903 62.5649 44.4515 59.9849 27.789C59.6624 25.5853 61.1674 23.5428 63.3711 23.1665C65.5749 22.844 67.6174 24.349 67.9936 26.5528C70.0361 39.5603 80.5711 49.5578 93.6861 50.8478C95.8899 51.0628 97.5024 53.0515 97.2874 55.2553C97.0186 57.2978 95.2449 58.8565 93.2024 58.8565Z" fill="#6F6F6F"/>
<path d="M112.875 122.281H16.125C13.9213 122.281 12.0938 120.454 12.0938 118.25C12.0938 116.046 13.9213 114.219 16.125 114.219H112.875C115.079 114.219 116.906 116.046 116.906 118.25C116.906 120.454 115.079 122.281 112.875 122.281Z" fill="#6F6F6F"/>
</svg>
