<svg width="16" height="16" viewBox="0 0 16 16" fill="none" xmlns="http://www.w3.org/2000/svg">
<path d="M2 13.0824L2.01946 14.5748C2.01947 14.7969 2.22505 14.999 2.45061 14.999L13.5896 15C13.8152 15 14 14.7979 14 14.5757V13.0824C9.82813 13.7444 6.34831 13.4811 2 13.0824Z" fill="#B31800"/>
<path d="M2.3501 1.00133C2.15259 1.03833 1.99659 1.22728 2.00009 1.42494V14.1335C2.00009 14.3553 2.20532 14.5571 2.43088 14.5571L13.5699 14.557C13.7954 14.557 14 14.3562 14 14.1344L14.0007 4.31179C11.5166 2.95678 11.5654 2.28056 10.5006 1.00208C10.5466 1.00382 10.4576 0.986197 10.5006 1.00208L2.43067 1.00111C2.40383 0.998593 2.37694 0.998816 2.3501 1.00133Z" fill="#E21E00"/>
<path d="M10.5006 1.00208C10.5006 4.27888 10.4954 4.17599 10.8635 4.2719C11.1436 4.34488 14.0007 4.31178 14.0007 4.31178C12.8806 3.25611 11.6673 2.10531 10.5006 1.00208Z" fill="#B31800"/>
</svg>