<svg width="16" height="16" viewBox="0 0 16 16" fill="none" xmlns="http://www.w3.org/2000/svg">
<path d="M2 13.0824L2.01946 14.5748C2.01947 14.7969 2.22505 14.999 2.45061 14.999L13.5896 15C13.8152 15 14 14.7979 14 14.5757V13.0824C9.82813 13.7444 6.34831 13.4811 2 13.0824Z" fill="#E8E8E8"/>
<path d="M2.43066 1.05111L10.4771 1.05208C10.7342 1.36248 10.9259 1.63727 11.1063 1.8966L11.1116 1.90413C11.2934 2.1654 11.465 2.41193 11.6806 2.66097C12.1141 3.16159 12.7228 3.6692 13.9507 4.34144L13.95 14.1344C13.95 14.3278 13.7687 14.507 13.5699 14.507L2.43088 14.5071C2.23214 14.5071 2.05009 14.3269 2.05009 14.1335V1.42494H2.0501L2.05008 1.42405C2.04704 1.25209 2.18404 1.08453 2.35707 1.05091C2.3803 1.04885 2.40328 1.04876 2.426 1.05089L2.42598 1.05111L2.43066 1.05111Z" fill="#FBFBFB" stroke="#C4C4C4" stroke-width="0.1"/>
<path d="M10.5006 1.00208C10.5006 4.27888 10.4954 4.17599 10.8635 4.2719C11.1436 4.34488 14.0007 4.31178 14.0007 4.31178C12.8806 3.25611 11.6673 2.10531 10.5006 1.00208Z" fill="#E8E8E8" stroke="#C4C4C4" stroke-width="0.1"/>
<path d="M9 12.5833H7C5.19001 12.5833 4.41667 11.81 4.41667 10V8C4.41667 6.19001 5.19001 5.41667 7 5.41667H9C10.81 5.41667 11.5833 6.19001 11.5833 8V10C11.5833 11.81 10.81 12.5833 9 12.5833ZM7 5.91667C5.46334 5.91667 4.91667 6.46334 4.91667 8V10C4.91667 11.5367 5.46334 12.0833 7 12.0833H9C10.5367 12.0833 11.0833 11.5367 11.0833 10V8C11.0833 6.46334 10.5367 5.91667 9 5.91667H7Z" fill="#B0B0B0"/>
<path d="M6.29666 12.41C6.15999 12.41 6.04666 12.2967 6.04666 12.16V5.84C6.04666 5.70333 6.15999 5.59 6.29666 5.59C6.43333 5.59 6.54666 5.7 6.54666 5.84V12.16C6.54666 12.3 6.43333 12.41 6.29666 12.41Z" fill="#B0B0B0"/>
<path d="M9.63 12.41C9.49334 12.41 9.38 12.2967 9.38 12.16V5.84C9.38 5.70333 9.49334 5.59 9.63 5.59C9.76667 5.59 9.88 5.70333 9.88 5.84V12.16C9.88 12.3 9.76667 12.41 9.63 12.41Z" fill="#B0B0B0"/>
<path d="M6.29666 7.57333H4.84666C4.71 7.57333 4.59666 7.46 4.59666 7.32333C4.59666 7.18667 4.71 7.07333 4.84666 7.07333H6.29666C6.43333 7.07333 6.54666 7.18667 6.54666 7.32333C6.54666 7.46 6.43333 7.57333 6.29666 7.57333Z" fill="#B0B0B0"/>
<path d="M6.29667 9.25H4.67667C4.54 9.25 4.42667 9.13667 4.42667 9C4.42667 8.86333 4.54 8.75 4.67667 8.75H6.29667C6.43333 8.75 6.54667 8.86333 6.54667 9C6.54667 9.13667 6.43333 9.25 6.29667 9.25Z" fill="#B0B0B0"/>
<path d="M6.29666 10.9067H4.82666C4.68999 10.9067 4.57666 10.7933 4.57666 10.6567C4.57666 10.52 4.68999 10.4067 4.82666 10.4067H6.29666C6.43333 10.4067 6.54666 10.52 6.54666 10.6567C6.54666 10.7933 6.43333 10.9067 6.29666 10.9067Z" fill="#B0B0B0"/>
<path d="M11.2967 7.57333H9.84666C9.71 7.57333 9.59666 7.46 9.59666 7.32333C9.59666 7.18667 9.71 7.07333 9.84666 7.07333H11.2967C11.4333 7.07333 11.5467 7.18667 11.5467 7.32333C11.5467 7.46 11.4333 7.57333 11.2967 7.57333Z" fill="#B0B0B0"/>
<path d="M11.2967 9.25H9.67667C9.54 9.25 9.42667 9.13667 9.42667 9C9.42667 8.86333 9.54 8.75 9.67667 8.75H11.2967C11.4333 8.75 11.5467 8.86333 11.5467 9C11.5467 9.13667 11.4333 9.25 11.2967 9.25Z" fill="#B0B0B0"/>
<path d="M9.65667 9.25H5.99001C5.85334 9.25 5.74001 9.13667 5.74001 9C5.74001 8.86333 5.85334 8.75 5.99001 8.75H9.65667C9.79334 8.75 9.90667 8.86333 9.90667 9C9.90667 9.13667 9.79667 9.25 9.65667 9.25Z" fill="#B0B0B0"/>
<path d="M11.2967 10.9067H9.82666C9.68999 10.9067 9.57666 10.7933 9.57666 10.6567C9.57666 10.52 9.68999 10.4067 9.82666 10.4067H11.2967C11.4333 10.4067 11.5467 10.52 11.5467 10.6567C11.5467 10.7933 11.4333 10.9067 11.2967 10.9067Z" fill="#B0B0B0"/>
</svg>