<svg width="16" height="16" viewBox="0 0 16 16" fill="none" xmlns="http://www.w3.org/2000/svg">
<path fill-rule="evenodd" clip-rule="evenodd" d="M1.46042 2.09973C1.20984 2.09973 1 2.3096 1 2.56015V13.6397C1 13.8984 1.20162 14.1 1.46042 14.1H14.5392C14.798 14.1 14.9997 13.8984 14.9997 13.6397L15 4.56216C15 4.31177 14.7902 4.09952 14.5396 4.09952L8 4.09994L6.00009 2.09984L1.46042 2.09973Z" fill="#0D51C9" fill-opacity="0.941176"/>
<path fill-rule="evenodd" clip-rule="evenodd" d="M1.46042 1.64392C1.20984 1.64392 1 1.85379 1 2.10434V13.1838C1 13.4425 1.20162 13.6442 1.46042 13.6442H14.5393C14.7981 13.6442 14.9997 13.4425 14.9997 13.1838L15.0001 4.10634C15.0001 3.85596 14.7903 3.6437 14.5397 3.6437L8.00005 3.64413L6.00012 1.64403L1.46042 1.64392Z" fill="#D6E5FF"/>
</svg>