<svg width="129" height="129" viewBox="0 0 129 129" fill="none" xmlns="http://www.w3.org/2000/svg">
<path d="M41.6562 99.4375C22.4138 99.4375 6.71875 83.7425 6.71875 64.5C6.71875 45.2575 22.4138 29.5625 41.6562 29.5625C43.86 29.5625 45.6875 31.39 45.6875 33.5938C45.6875 35.7975 43.86 37.625 41.6562 37.625C26.8213 37.625 14.7812 49.665 14.7812 64.5C14.7812 79.335 26.8213 91.375 41.6562 91.375C56.4912 91.375 68.5312 79.335 68.5312 64.5C68.5312 62.2963 70.3588 60.4688 72.5625 60.4688C74.7662 60.4688 76.5938 62.2963 76.5938 64.5C76.5938 83.7425 60.8987 99.4375 41.6562 99.4375Z" fill="#6F6F6F"/>
<path d="M86 100.781C83.7963 100.781 81.9688 98.9537 81.9688 96.75C81.9688 94.5463 83.7963 92.7188 86 92.7188C101.534 92.7188 114.219 80.0338 114.219 64.5C114.219 48.9662 101.534 36.2812 86 36.2812C70.4662 36.2812 57.7812 48.9662 57.7812 64.5C57.7812 66.7037 55.9537 68.5312 53.75 68.5312C51.5463 68.5312 49.7188 66.7037 49.7188 64.5C49.7188 44.505 66.005 28.2188 86 28.2188C105.995 28.2188 122.281 44.505 122.281 64.5C122.281 84.495 105.995 100.781 86 100.781Z" fill="#6F6F6F"/>
</svg>