<svg viewBox="0 0 512 512" fill="none" xmlns="http://www.w3.org/2000/svg">
<path d="M424.534 485.333H87.467C46.507 485.333 26.667 464.427 26.667 421.76V335.573C26.667 292.693 46.507 272 87.467 272H424.534C465.494 272 485.334 292.907 485.334 335.573V421.76C485.334 464.427 465.494 485.333 424.534 485.333ZM87.467 304C65.9203 304 58.667 308.48 58.667 335.573V421.76C58.667 448.853 65.9203 453.333 87.467 453.333H424.534C446.08 453.333 453.334 448.853 453.334 421.76V335.573C453.334 308.48 446.08 304 424.534 304H87.467Z" fill="#6F6F6F"/>
<path d="M424.534 240H87.467C46.507 240 26.667 219.094 26.667 176.427V90.2403C26.667 47.3603 46.507 26.667 87.467 26.667H424.534C465.494 26.667 485.334 47.5737 485.334 90.2403V176.427C485.334 219.094 465.494 240 424.534 240ZM87.467 58.667C65.9203 58.667 58.667 63.147 58.667 90.2403V176.427C58.667 203.52 65.9203 208 87.467 208H424.534C446.08 208 453.334 203.52 453.334 176.427V90.2403C453.334 63.147 446.08 58.667 424.534 58.667H87.467V58.667Z" fill="#6F6F6F"/>
</svg>