<svg viewBox="0 0 512 512" fill="none" xmlns="http://www.w3.org/2000/svg">
<path d="M372.053 327.893C368 327.893 363.946 326.4 360.746 323.2C354.56 317.013 354.56 306.773 360.746 300.586L404.053 257.28L360.746 213.973C354.56 207.786 354.56 197.546 360.746 191.36C366.933 185.173 377.173 185.173 383.36 191.36L437.973 245.973C444.16 252.16 444.16 262.4 437.973 268.586L383.36 323.2C380.16 326.4 376.106 327.893 372.053 327.893Z" fill="#6F6F6F"/>
<path d="M425.173 273.28H208.213C199.466 273.28 192.213 266.027 192.213 257.28C192.213 248.534 199.466 241.28 208.213 241.28H425.173C433.92 241.28 441.173 248.534 441.173 257.28C441.173 266.027 433.92 273.28 425.173 273.28Z" fill="#6F6F6F"/>
<path d="M250.88 442.666C141.013 442.666 64.2129 365.866 64.2129 256C64.2129 146.133 141.013 69.333 250.88 69.333C259.626 69.333 266.88 76.5863 266.88 85.333C266.88 94.0797 259.626 101.333 250.88 101.333C159.786 101.333 96.2129 164.906 96.2129 256C96.2129 347.093 159.786 410.666 250.88 410.666C259.626 410.666 266.88 417.92 266.88 426.666C266.88 435.413 259.626 442.666 250.88 442.666Z" fill="#6F6F6F"/>
</svg>