<svg viewBox="0 0 512 512" fill="none" xmlns="http://www.w3.org/2000/svg">
<path d="M245.334 464C124.8 464 26.667 365.867 26.667 245.334C26.667 124.8 124.8 26.667 245.334 26.667C365.867 26.667 464 124.8 464 245.334C464 365.867 365.867 464 245.334 464ZM245.334 58.667C142.294 58.667 58.667 142.507 58.667 245.334C58.667 348.16 142.294 432 245.334 432C348.374 432 432 348.16 432 245.334C432 142.507 348.374 58.667 245.334 58.667Z" fill="#6F6F6F"/>
<path d="M469.333 485.333C465.28 485.333 461.226 483.84 458.026 480.64L415.36 437.973C409.173 431.786 409.173 421.546 415.36 415.36C421.546 409.173 431.786 409.173 437.973 415.36L480.64 458.026C486.826 464.213 486.826 474.453 480.64 480.64C477.44 483.84 473.386 485.333 469.333 485.333Z" fill="#6F6F6F"/>
</svg>
