<svg viewBox="0 0 512 512" fill="none" xmlns="http://www.w3.org/2000/svg">
<path d="M192.213 453.334C188.16 453.334 184.107 451.84 180.907 448.64L74.0267 341.76C67.8401 335.574 67.8401 325.334 74.0267 319.147C80.2134 312.96 90.4534 312.96 96.6401 319.147L203.52 426.027C209.707 432.213 209.707 442.454 203.52 448.64C200.32 451.627 196.267 453.334 192.213 453.334Z" fill="#6F6F6F"/>
<path d="M192.213 453.334C183.466 453.334 176.213 446.08 176.213 437.334V74.667C176.213 65.9203 183.466 58.667 192.213 58.667C200.96 58.667 208.213 65.9203 208.213 74.667V437.334C208.213 446.08 200.96 453.334 192.213 453.334Z" fill="#6F6F6F"/>
<path d="M426.88 197.546C422.827 197.546 418.774 196.053 415.574 192.853L308.694 85.9731C302.507 79.7864 302.507 69.5464 308.694 63.3597C314.88 57.1731 325.12 57.1731 331.307 63.3597L438.187 170.24C444.374 176.426 444.374 186.666 438.187 192.853C434.987 196.053 430.934 197.546 426.88 197.546Z" fill="#6F6F6F"/>
<path d="M319.787 453.334C311.04 453.334 303.787 446.08 303.787 437.334V74.667C303.787 65.9203 311.04 58.667 319.787 58.667C328.534 58.667 335.787 65.9203 335.787 74.667V437.334C335.787 446.08 328.747 453.334 319.787 453.334Z" fill="#6F6F6F"/>
</svg>